<?xml version="1.0" encoding="UTF-8" standalone="no"?>
<!DOCTYPE svg PUBLIC "-//W3C//DTD SVG 1.1//EN" "http://www.w3.org/Graphics/SVG/1.1/DTD/svg11.dtd">
<svg width="100%" height="100%" viewBox="0 0 512 512" version="1.1" xmlns="http://www.w3.org/2000/svg" xmlns:xlink="http://www.w3.org/1999/xlink" xml:space="preserve" xmlns:serif="http://www.serif.com/" style="fill-rule:evenodd;clip-rule:evenodd;stroke-linejoin:round;stroke-miterlimit:2;">
    <g transform="matrix(0.323368,0,0,0.292571,256,256)">
        <g transform="matrix(1,0,0,1,-791.668521,-875.000646)">
            <clipPath id="_clip1">
                <rect x="0" y="0" width="1583.337" height="1750.001"/>
            </clipPath>
            <g clip-path="url(#_clip1)">
                <g id="path2" transform="matrix(41.666667,0,0,41.666667,0,0)">
                    <path d="M17.903,0.286C18.582,-0.095 19.418,-0.095 20.096,0.286C23.451,2.169 33.547,7.837 36.903,9.72C37.582,10.1 38,10.804 38,11.566L38,30.433C38,31.195 37.582,31.899 36.903,32.28C33.548,34.163 23.452,39.831 20.096,41.714C19.417,42.095 18.581,42.095 17.903,41.714C14.548,39.831 4.452,34.163 1.096,32.28C0.418,31.899 0,31.196 0,30.434L0,11.567C0,10.805 0.418,10.101 1.097,9.72C4.451,7.837 14.549,2.169 17.903,0.286Z" style="fill:rgb(40,53,147);"/>
                </g>
                <g id="path4" transform="matrix(41.666667,0,0,41.666667,0,0)">
                    <path d="M0.304,31.404C0.038,31.048 0,30.71 0,30.255L0,11.496C0,10.738 0.417,10.038 1.094,9.66C4.437,7.788 14.499,2.153 17.842,0.28C18.519,-0.099 19.436,-0.091 20.113,0.288C23.456,2.16 33.484,7.747 36.827,9.619C37.097,9.771 37.303,9.954 37.487,10.195L0.304,31.404Z" style="fill:rgb(92,107,192);"/>
                </g>
                <g id="path6" transform="matrix(41.666667,0,0,41.666667,0,0)">
                    <path d="M19,7C26.727,7 33,13.273 33,21C33,28.727 26.727,35 19,35C11.273,35 5,28.727 5,21C5,13.273 11.273,7 19,7ZM19,14C22.863,14 26,17.136 26,21C26,24.863 22.863,28 19,28C15.137,28 12,24.863 12,21C12,17.136 15.136,14 19,14Z" style="fill:white;"/>
                </g>
                <g id="path8" transform="matrix(41.666667,0,0,41.666667,0,0)">
                    <path d="M37.485,10.205C38.001,10.688 37.991,11.416 37.991,11.989C37.991,15.784 37.959,26.578 38,30.373C38.004,30.769 37.873,31.186 37.677,31.5L18.593,21L37.485,10.205Z" style="fill:rgb(57,73,171);"/>
                </g>
            </g>
        </g>
    </g>
</svg>
