<?xml version="1.0" encoding="UTF-8" standalone="no"?>
<!DOCTYPE svg PUBLIC "-//W3C//DTD SVG 1.1//EN" "http://www.w3.org/Graphics/SVG/1.1/DTD/svg11.dtd">
<svg width="100%" height="100%" viewBox="0 0 512 512" version="1.1" xmlns="http://www.w3.org/2000/svg" xmlns:xlink="http://www.w3.org/1999/xlink" xml:space="preserve" xmlns:serif="http://www.serif.com/" style="fill-rule:evenodd;clip-rule:evenodd;stroke-linejoin:round;stroke-miterlimit:2;">
    <g transform="matrix(0.1536,0,0,0.1536,256,256)">
        <g transform="matrix(1,0,0,1,-1666.666667,-1666.666667)">
            <g transform="matrix(104.166667,0,0,104.166667,0,0)">
                <circle cx="16" cy="16" r="14" style="fill:rgb(23,148,212);"/>
            </g>
            <g transform="matrix(104.166667,0,0,104.166667,0,0)">
                <rect x="16" y="7" width="2" height="2" style="fill:white;fill-rule:nonzero;"/>
            </g>
            <g transform="matrix(104.166667,0,0,104.166667,0,0)">
                <rect x="10" y="10" width="2" height="2" style="fill:white;fill-rule:nonzero;"/>
            </g>
            <g transform="matrix(104.166667,0,0,104.166667,0,0)">
                <path d="M6.002,16.941C6.172,19.843 7.9,24 14,24C20.8,24 23.833,19 24.5,16.5C25.333,16.5 27.2,16 28,14C27.5,13.5 25.5,13.5 24.5,14C24.5,13.2 24,11.5 23,11C22.333,11.667 21.3,13.4 22.5,15C22,16 20.667,16 20,16L6.943,16C6.413,16 5.97,16.413 6.002,16.941Z" style="fill:white;fill-rule:nonzero;"/>
            </g>
            <g transform="matrix(104.166667,0,0,104.166667,0,0)">
                <rect x="7" y="13" width="2" height="2" style="fill:white;fill-rule:nonzero;"/>
            </g>
            <g transform="matrix(104.166667,0,0,104.166667,0,0)">
                <rect x="10" y="13" width="2" height="2" style="fill:white;fill-rule:nonzero;"/>
            </g>
            <g transform="matrix(104.166667,0,0,104.166667,0,0)">
                <rect x="13" y="13" width="2" height="2" style="fill:white;fill-rule:nonzero;"/>
            </g>
            <g transform="matrix(104.166667,0,0,104.166667,0,0)">
                <rect x="16" y="13" width="2" height="2" style="fill:white;fill-rule:nonzero;"/>
            </g>
            <g transform="matrix(104.166667,0,0,104.166667,0,0)">
                <rect x="19" y="13" width="2" height="2" style="fill:white;fill-rule:nonzero;"/>
            </g>
            <g transform="matrix(104.166667,0,0,104.166667,0,0)">
                <rect x="13" y="10" width="2" height="2" style="fill:white;fill-rule:nonzero;"/>
            </g>
            <g transform="matrix(104.166667,0,0,104.166667,0,0)">
                <rect x="16" y="10" width="2" height="2" style="fill:white;fill-rule:nonzero;"/>
            </g>
        </g>
    </g>
</svg>
