<?xml version="1.0" encoding="UTF-8" standalone="no"?>
<!DOCTYPE svg PUBLIC "-//W3C//DTD SVG 1.1//EN" "http://www.w3.org/Graphics/SVG/1.1/DTD/svg11.dtd">
<svg width="100%" height="100%" viewBox="0 0 512 512" version="1.1" xmlns="http://www.w3.org/2000/svg" xmlns:xlink="http://www.w3.org/1999/xlink" xml:space="preserve" xmlns:serif="http://www.serif.com/" style="fill-rule:evenodd;clip-rule:evenodd;stroke-linejoin:round;stroke-miterlimit:2;">
    <g transform="matrix(0.1536,0,0,0.1536,256,256)">
        <g transform="matrix(1,0,0,1,-1666.666667,-1666.666667)">
            <g transform="matrix(208.333333,0,0,208.333333,0,0)">
                <path d="M8.55,8C8.55,6.711 9.569,5.667 10.825,5.667C12.082,5.667 13.1,6.71 13.1,8C13.1,9.289 12.082,10.333 10.825,10.333C9.57,10.333 8.55,9.29 8.55,8Z" style="fill:rgb(26,188,254);fill-rule:nonzero;"/>
            </g>
            <g transform="matrix(208.333333,0,0,208.333333,0,0)">
                <path d="M4,12.667C4,11.378 5.019,10.333 6.275,10.333L8.55,10.333L8.55,12.667C8.55,13.955 7.531,15 6.275,15C5.019,15 4,13.955 4,12.667Z" style="fill:rgb(10,207,131);fill-rule:nonzero;"/>
            </g>
            <g transform="matrix(208.333333,0,0,208.333333,0,0)">
                <path d="M8.55,1L8.55,5.667L10.825,5.667C12.082,5.667 13.1,4.622 13.1,3.333C13.1,2.045 12.082,1 10.825,1L8.55,1Z" style="fill:rgb(255,114,98);fill-rule:nonzero;"/>
            </g>
            <g transform="matrix(208.333333,0,0,208.333333,0,0)">
                <path d="M4,3.333C4,4.622 5.019,5.667 6.275,5.667L8.55,5.667L8.55,1L6.275,1C5.019,1 4,2.045 4,3.333Z" style="fill:rgb(242,78,30);fill-rule:nonzero;"/>
            </g>
            <g transform="matrix(208.333333,0,0,208.333333,0,0)">
                <path d="M4,8C4,9.289 5.019,10.333 6.275,10.333L8.55,10.333L8.55,5.667L6.275,5.667C5.019,5.667 4,6.71 4,8Z" style="fill:rgb(162,89,255);fill-rule:nonzero;"/>
            </g>
        </g>
    </g>
</svg>
