<?xml version="1.0" encoding="UTF-8" standalone="no"?>
<!DOCTYPE svg PUBLIC "-//W3C//DTD SVG 1.1//EN" "http://www.w3.org/Graphics/SVG/1.1/DTD/svg11.dtd">
<svg width="100%" height="100%" viewBox="0 0 512 512" version="1.1" xmlns="http://www.w3.org/2000/svg" xmlns:xlink="http://www.w3.org/1999/xlink" xml:space="preserve" xmlns:serif="http://www.serif.com/" style="fill-rule:evenodd;clip-rule:evenodd;stroke-linejoin:round;stroke-miterlimit:2;">
    <g transform="matrix(0.1536,0,0,0.1536,256,256)">
        <g transform="matrix(1,0,0,1,-1666.666667,-1666.666667)">
            <g transform="matrix(104.166667,0,0,104.166667,0,0)">
                <path d="M2.585,17.413C1.805,16.633 1.805,15.367 2.585,14.587L14.587,2.585C15.367,1.805 16.633,1.805 17.413,2.585L29.415,14.587C30.195,15.367 30.195,16.633 29.415,17.413L17.413,29.415C16.633,30.195 15.367,30.195 14.587,29.415L2.585,17.413Z" style="fill:rgb(238,81,59);fill-rule:nonzero;"/>
            </g>
            <g transform="matrix(104.166667,0,0,104.166667,0,0)">
                <path d="M12.149,5.062L10.934,6.277L14.072,9.416C13.945,9.688 13.875,9.992 13.875,10.312C13.875,11.222 14.446,11.998 15.25,12.301L15.25,19.98C14.446,20.283 13.875,21.059 13.875,21.969C13.875,23.142 14.826,24.094 16,24.094C17.173,24.094 18.125,23.142 18.125,21.969C18.125,21.144 17.655,20.429 16.968,20.077L16.968,12.312L19.969,15.312C19.848,15.579 19.781,15.875 19.781,16.187C19.781,17.361 20.732,18.312 21.906,18.312C23.079,18.312 24.031,17.361 24.031,16.187C24.031,15.014 23.079,14.062 21.906,14.062C21.678,14.062 21.458,14.098 21.252,14.165L18.03,10.942C18.091,10.743 18.125,10.532 18.125,10.312C18.125,9.139 17.173,8.187 16,8.187C15.78,8.187 15.569,8.221 15.37,8.282L12.149,5.062Z" style="fill:white;fill-rule:nonzero;"/>
            </g>
        </g>
    </g>
</svg>
