<?xml version="1.0" encoding="UTF-8" standalone="no"?>
<!DOCTYPE svg PUBLIC "-//W3C//DTD SVG 1.1//EN" "http://www.w3.org/Graphics/SVG/1.1/DTD/svg11.dtd">
<svg width="100%" height="100%" viewBox="0 0 512 512" version="1.1" xmlns="http://www.w3.org/2000/svg" xmlns:xlink="http://www.w3.org/1999/xlink" xml:space="preserve" xmlns:serif="http://www.serif.com/" style="fill-rule:evenodd;clip-rule:evenodd;stroke-linejoin:round;stroke-miterlimit:2;">
    <g transform="matrix(0.1536,0,0,0.1536,256,256)">
        <g transform="matrix(1,0,0,1,-1666.666667,-1666.666667)">
            <g transform="matrix(104.166667,0,0,104.166667,0,0)">
                <path d="M5.987,17.15C6.027,17.976 6.852,17.594 7.226,17.336C7.581,17.091 7.685,17.295 7.716,16.811C7.748,16.494 7.761,16.175 7.755,15.856C7.204,15.801 6.651,15.943 6.195,16.256C5.968,16.421 5.544,16.946 5.987,17.156" style="fill:rgb(246,210,162);"/>
            </g>
            <g transform="matrix(104.166667,0,0,104.166667,0,0)">
                <path d="M6.416,17.732C6.334,17.733 6.254,17.716 6.18,17.681C6.009,17.582 5.905,17.397 5.91,17.199C5.799,17.145 5.724,17.038 5.71,16.916C5.74,16.622 5.898,16.356 6.142,16.189C6.613,15.863 7.185,15.717 7.755,15.776L7.823,15.782L7.823,15.85C7.832,16.099 7.824,16.349 7.8,16.597C7.794,16.67 7.789,16.742 7.784,16.815C7.762,17.158 7.698,17.21 7.521,17.271C7.428,17.301 7.34,17.344 7.26,17.4C7.012,17.581 6.721,17.696 6.416,17.732ZM7.526,15.924C7.067,15.918 6.617,16.056 6.24,16.318C6.078,16.436 5.853,16.712 5.872,16.902C5.884,16.984 5.941,17.053 6.019,17.079L6.062,17.099L6.062,17.146C6.072,17.352 6.134,17.484 6.247,17.54C6.465,17.648 6.871,17.482 7.178,17.271C7.27,17.207 7.371,17.157 7.478,17.123C7.594,17.083 7.618,17.074 7.635,16.805C7.635,16.732 7.645,16.659 7.651,16.585C7.671,16.366 7.68,16.147 7.677,15.927C7.626,15.925 7.576,15.924 7.527,15.924L7.526,15.924Z" style="fill-rule:nonzero;"/>
            </g>
            <g transform="matrix(104.166667,0,0,104.166667,0,0)">
                <path d="M5.987,17.15C6.113,17.122 6.227,17.058 6.316,16.965" style="fill:rgb(198,177,152);"/>
            </g>
            <g transform="matrix(104.166667,0,0,104.166667,0,0)">
                <path d="M5.987,17.229C5.945,17.227 5.911,17.192 5.911,17.15C5.911,17.118 5.93,17.089 5.96,17.077L6.013,17.058C6.105,17.037 6.189,16.988 6.254,16.919C6.268,16.895 6.294,16.881 6.322,16.881C6.365,16.881 6.401,16.916 6.401,16.96C6.401,16.979 6.393,16.998 6.38,17.013C6.298,17.108 6.188,17.175 6.066,17.206L6.015,17.224C6.006,17.227 5.997,17.229 5.987,17.229Z" style="fill-rule:nonzero;"/>
            </g>
            <g transform="matrix(104.166667,0,0,104.166667,0,0)">
                <path d="M7.894,7.309C4.731,6.42 7.083,2.4 9.622,4.052L7.894,7.309Z" style="fill:rgb(106,215,229);"/>
            </g>
            <g transform="matrix(104.166667,0,0,104.166667,0,0)">
                <path d="M7.934,7.4L7.873,7.383C7.096,7.251 6.475,6.654 6.311,5.883C6.235,5.093 6.614,4.324 7.288,3.904C8.021,3.442 8.967,3.474 9.666,3.985L9.726,4.024L7.934,7.4ZM8.383,3.734C8.024,3.734 7.673,3.838 7.373,4.034C6.75,4.42 6.398,5.128 6.466,5.857C6.613,6.547 7.161,7.084 7.854,7.216L9.519,4.079C9.18,3.861 8.786,3.743 8.383,3.736L8.383,3.734Z" style="fill-rule:nonzero;"/>
            </g>
            <g transform="matrix(104.166667,0,0,104.166667,0,0)">
                <path d="M21.944,3.75C24.444,1.992 26.709,5.959 23.8,6.957L21.944,3.75Z" style="fill:rgb(106,215,229);"/>
            </g>
            <g transform="matrix(104.166667,0,0,104.166667,0,0)">
                <path d="M23.765,7.052L21.84,3.727L21.899,3.686C22.553,3.163 23.462,3.086 24.194,3.493C24.884,3.898 25.289,4.66 25.238,5.458C25.134,6.221 24.572,6.846 23.825,7.031L23.765,7.052ZM22.049,3.773L23.836,6.86C24.497,6.68 24.988,6.12 25.082,5.442C25.128,4.704 24.753,4.001 24.115,3.628C23.462,3.253 22.643,3.31 22.049,3.773Z" style="fill-rule:nonzero;"/>
            </g>
            <g transform="matrix(104.166667,0,0,104.166667,0,0)">
                <path d="M22.483,27.317C23.119,27.71 24.283,28.9 23.327,29.477C22.411,30.316 21.898,28.556 21.093,28.312C21.405,27.809 21.906,27.45 22.483,27.317Z" style="fill:rgb(246,210,162);"/>
            </g>
            <g transform="matrix(104.166667,0,0,104.166667,0,0)">
                <path d="M22.844,29.781L22.806,29.781C22.445,29.759 22.145,29.407 21.855,29.066C21.656,28.777 21.386,28.543 21.07,28.389L20.964,28.357L21.03,28.267C21.356,27.749 21.874,27.38 22.471,27.241L22.5,27.241L22.525,27.256C22.932,27.508 23.772,28.244 23.768,28.91C23.764,29.178 23.613,29.422 23.375,29.546C23.234,29.689 23.044,29.773 22.844,29.781ZM21.219,28.281C21.516,28.456 21.773,28.69 21.975,28.968C22.256,29.298 22.522,29.61 22.816,29.628C22.989,29.628 23.155,29.555 23.273,29.428L23.285,29.419C23.479,29.324 23.604,29.129 23.609,28.913C23.609,28.381 22.937,27.713 22.465,27.413C21.955,27.531 21.509,27.84 21.219,28.276L21.219,28.281Z" style="fill-rule:nonzero;"/>
            </g>
            <g transform="matrix(104.166667,0,0,104.166667,0,0)">
                <path d="M23.327,29.556C23.298,29.556 23.27,29.539 23.257,29.513C23.21,29.415 23.169,29.315 23.134,29.213C23.079,29.021 22.982,28.844 22.848,28.695C22.836,28.681 22.83,28.663 22.83,28.645C22.83,28.601 22.866,28.566 22.909,28.566C22.926,28.566 22.943,28.571 22.957,28.582C23.108,28.747 23.22,28.944 23.282,29.159C23.316,29.254 23.354,29.348 23.398,29.439C23.417,29.478 23.402,29.525 23.363,29.545C23.352,29.552 23.34,29.555 23.327,29.556Z" style="fill-rule:nonzero;"/>
            </g>
            <g transform="matrix(104.166667,0,0,104.166667,0,0)">
                <path d="M11.124,28.662C10.378,28.777 9.958,29.451 9.336,29.793C8.75,30.143 8.525,29.681 8.473,29.587C8.381,29.545 8.389,29.626 8.247,29.487C7.7,28.625 8.812,28 9.39,27.572C10.195,27.409 10.7,28.107 11.124,28.662Z" style="fill:rgb(246,210,162);"/>
            </g>
            <g transform="matrix(104.166667,0,0,104.166667,0,0)">
                <path d="M8.939,30C8.891,30 8.844,29.994 8.798,29.982C8.632,29.928 8.495,29.809 8.418,29.652L8.4,29.652C8.334,29.652 8.285,29.638 8.187,29.539L8.176,29.526C7.653,28.7 8.543,28.073 9.133,27.658C9.207,27.606 9.277,27.558 9.34,27.51L9.354,27.5L9.371,27.5C10.2,27.332 10.724,28.018 11.144,28.569L11.263,28.724L11.132,28.744C10.711,28.845 10.327,29.065 10.027,29.378C9.825,29.563 9.605,29.726 9.37,29.866C9.241,29.948 9.092,29.995 8.939,30ZM8.412,29.494C8.444,29.494 8.475,29.501 8.504,29.515L8.527,29.526L8.547,29.561C8.604,29.686 8.709,29.784 8.839,29.83C8.998,29.86 9.163,29.823 9.295,29.73C9.521,29.595 9.733,29.437 9.928,29.259C10.224,28.963 10.586,28.743 10.984,28.615C10.584,28.089 10.122,27.521 9.422,27.652C9.361,27.696 9.295,27.743 9.222,27.791C8.622,28.215 7.87,28.743 8.303,29.439C8.365,29.501 8.38,29.5 8.393,29.5L8.412,29.494Z" style="fill-rule:nonzero;"/>
            </g>
            <g transform="matrix(104.166667,0,0,104.166667,0,0)">
                <path d="M8.472,29.665L8.465,29.665C8.422,29.661 8.39,29.623 8.393,29.58C8.425,29.37 8.513,29.173 8.646,29.008C8.709,28.921 8.764,28.829 8.811,28.732C8.825,28.706 8.852,28.69 8.881,28.69C8.924,28.69 8.96,28.726 8.96,28.769C8.96,28.778 8.958,28.787 8.955,28.796C8.905,28.901 8.845,29.001 8.777,29.096C8.659,29.24 8.581,29.412 8.551,29.596C8.546,29.635 8.512,29.665 8.472,29.665Z" style="fill-rule:nonzero;"/>
            </g>
            <g transform="matrix(104.166667,0,0,104.166667,0,0)">
                <path d="M8.026,6.2C7.609,5.979 7.303,5.68 7.558,5.2C7.794,4.753 8.233,4.8 8.65,5.022L8.026,6.2Z"/>
            </g>
            <g transform="matrix(104.166667,0,0,104.166667,0,0)">
                <path d="M23.141,5.778C23.558,5.557 23.864,5.258 23.609,4.778C23.373,4.331 22.934,4.378 22.517,4.6L23.141,5.778Z"/>
            </g>
            <g transform="matrix(104.166667,0,0,104.166667,0,0)">
                <path d="M26.013,17.046C25.973,17.872 25.148,17.49 24.774,17.232C24.419,16.987 24.315,17.191 24.284,16.707C24.252,16.39 24.239,16.071 24.245,15.752C24.796,15.697 25.349,15.839 25.805,16.152C26.032,16.317 26.456,16.842 26.013,17.052" style="fill:rgb(246,210,162);"/>
            </g>
            <g transform="matrix(104.166667,0,0,104.166667,0,0)">
                <path d="M25.584,17.627C25.275,17.593 24.981,17.479 24.73,17.296C24.65,17.24 24.562,17.197 24.469,17.167C24.292,17.105 24.228,17.053 24.206,16.711C24.206,16.638 24.196,16.566 24.19,16.493C24.166,16.245 24.158,15.995 24.167,15.746L24.167,15.678L24.235,15.672C24.805,15.613 25.377,15.759 25.848,16.085C26.092,16.252 26.25,16.518 26.28,16.812C26.266,16.934 26.191,17.041 26.08,17.095C26.085,17.293 25.981,17.478 25.81,17.577C25.739,17.61 25.662,17.627 25.584,17.627ZM24.321,15.827C24.318,16.047 24.327,16.266 24.347,16.485C24.353,16.558 24.358,16.631 24.363,16.705C24.38,16.974 24.404,16.982 24.52,17.023C24.627,17.057 24.728,17.107 24.82,17.171C25.126,17.383 25.533,17.548 25.751,17.44C25.864,17.384 25.926,17.252 25.936,17.046L25.936,16.999L25.979,16.979C26.057,16.953 26.114,16.884 26.126,16.802C26.144,16.612 25.92,16.336 25.758,16.218C25.338,15.926 24.831,15.787 24.321,15.824L24.321,15.827Z" style="fill-rule:nonzero;"/>
            </g>
            <g transform="matrix(104.166667,0,0,104.166667,0,0)">
                <path d="M26.013,17.046C25.887,17.018 25.773,16.954 25.684,16.861" style="fill:rgb(198,177,152);"/>
            </g>
            <g transform="matrix(104.166667,0,0,104.166667,0,0)">
                <path d="M26.013,17.124C26.004,17.126 25.995,17.126 25.986,17.124L25.935,17.106C25.813,17.075 25.703,17.008 25.621,16.913C25.608,16.898 25.6,16.879 25.6,16.86C25.6,16.816 25.636,16.781 25.679,16.781C25.707,16.781 25.733,16.795 25.747,16.819C25.812,16.888 25.896,16.937 25.988,16.958L26.041,16.977C26.071,16.989 26.09,17.018 26.09,17.05C26.09,17.092 26.056,17.127 26.014,17.129L26.013,17.124Z" style="fill-rule:nonzero;"/>
            </g>
            <g transform="matrix(104.166667,0,0,104.166667,0,0)">
                <path d="M15.683,2.079C18.849,2.079 21.817,2.532 23.364,5.574C24.753,8.983 24.259,12.66 24.471,16.263C24.653,19.357 25.056,22.931 23.621,25.799C22.111,28.815 18.338,29.574 15.229,29.463C12.787,29.376 9.838,28.579 8.46,26.348C6.843,23.731 7.609,19.839 7.726,16.927C7.865,13.478 6.792,10.017 7.926,6.642C9.102,3.142 12.272,2.349 15.684,2.079" style="fill:rgb(106,215,229);"/>
            </g>
            <g transform="matrix(104.166667,0,0,104.166667,0,0)">
                <path d="M15.77,29.55C15.57,29.55 15.39,29.55 15.227,29.54C13.727,29.486 10.051,29.071 8.394,26.388C7.087,24.272 7.32,21.347 7.525,18.766C7.577,18.117 7.625,17.503 7.649,16.923C7.672,15.699 7.62,14.475 7.492,13.257C7.152,11.042 7.274,8.781 7.852,6.616C8.336,5.057 9.454,3.771 10.932,3.077C12.431,2.421 14.042,2.056 15.677,2L15.683,2C18.774,2 21.853,2.429 23.434,5.538L23.434,5.544C24.277,8.04 24.632,10.676 24.478,13.306C24.483,14.275 24.489,15.278 24.546,16.258C24.563,16.558 24.583,16.858 24.603,17.158C24.787,19.999 24.995,23.22 23.688,25.831C22.059,29.092 17.947,29.55 15.77,29.55ZM15.686,2.157C12.392,2.418 9.186,3.145 7.999,6.666C7.429,8.811 7.309,11.051 7.646,13.244C7.773,14.468 7.825,15.699 7.8,16.93C7.776,17.514 7.728,18.13 7.676,18.78C7.476,21.337 7.242,24.235 8.522,26.307C10.14,28.926 13.75,29.332 15.227,29.384C17.149,29.453 21.806,29.237 23.545,25.763C24.833,23.19 24.626,19.992 24.445,17.171C24.425,16.871 24.406,16.565 24.388,16.271C24.33,15.287 24.325,14.282 24.32,13.311C24.473,10.702 24.123,8.088 23.289,5.611C21.75,2.576 18.725,2.158 15.686,2.157Z" style="fill-rule:nonzero;"/>
            </g>
            <g transform="matrix(104.166667,0,0,104.166667,0,0)">
                <path d="M16.242,6.329C16.81,9.629 22.212,8.76 21.436,5.429C20.736,2.441 16.053,3.268 16.242,6.329" style="fill:white;"/>
            </g>
            <g transform="matrix(104.166667,0,0,104.166667,0,0)">
                <path d="M18.808,8.485C18.472,8.486 18.138,8.432 17.82,8.323C16.938,8.031 16.296,7.261 16.167,6.341L16.167,6.333C16.085,4.907 17.16,3.654 18.583,3.519C19.903,3.245 21.217,4.094 21.51,5.41C21.749,6.254 21.487,7.164 20.837,7.753C20.272,8.234 19.55,8.494 18.808,8.485ZM16.318,6.32C16.44,7.183 17.043,7.905 17.87,8.18C18.853,8.51 19.94,8.305 20.735,7.64C21.345,7.087 21.589,6.232 21.362,5.44C21.082,4.202 19.842,3.407 18.6,3.67C17.26,3.797 16.245,4.976 16.318,6.32Z" style="fill-rule:nonzero;"/>
            </g>
            <g transform="matrix(104.166667,0,0,104.166667,0,0)">
                <path d="M9.788,6.863C10.524,9.74 15.13,9 14.956,6.118C14.748,2.662 9.083,3.329 9.787,6.863" style="fill:white;"/>
            </g>
            <g transform="matrix(104.166667,0,0,104.166667,0,0)">
                <path d="M12.245,8.761C11.777,8.765 11.314,8.653 10.9,8.435C10.302,8.11 9.871,7.545 9.716,6.882C9.484,5.969 9.808,5 10.542,4.41C11.425,3.737 12.605,3.586 13.629,4.016C14.465,4.381 15.013,5.204 15.029,6.116C15.077,7.447 14.065,8.6 12.739,8.725C12.576,8.75 12.41,8.762 12.245,8.761ZM9.86,6.847C10.187,8.093 11.463,8.864 12.718,8.576C13.968,8.461 14.925,7.377 14.883,6.122C14.87,5.264 14.355,4.49 13.569,4.146C12.595,3.737 11.474,3.88 10.634,4.52C9.944,5.076 9.641,5.988 9.86,6.847Z" style="fill-rule:nonzero;"/>
            </g>
            <g transform="matrix(104.166667,0,0,104.166667,0,0)">
                <path d="M16.894,10.294C16.941,10.749 16.947,11.207 16.91,11.663C16.8,11.87 16.585,11.892 16.4,11.976C16.144,11.936 15.926,11.766 15.825,11.527C15.797,11.01 15.811,10.492 15.866,9.978L16.894,10.294Z" style="fill:white;"/>
            </g>
            <g transform="matrix(104.166667,0,0,104.166667,0,0)">
                <path d="M16.411,12.057L16.388,12.057C16.104,12.012 15.863,11.822 15.753,11.557L15.753,11.536C15.72,11.182 15.723,10.826 15.762,10.473C15.775,10.31 15.788,10.142 15.793,9.973L15.793,9.873L16.974,10.235L16.974,10.293C16.974,10.435 16.986,10.582 16.998,10.737C17.035,11.049 17.032,11.365 16.99,11.676L16.99,11.688L16.984,11.699C16.892,11.851 16.743,11.959 16.57,11.999C16.523,12.016 16.479,12.031 16.436,12.051L16.411,12.057ZM15.902,11.506C15.991,11.707 16.174,11.853 16.39,11.894C16.431,11.877 16.473,11.862 16.513,11.847C16.643,11.82 16.758,11.745 16.835,11.636C16.871,11.341 16.871,11.044 16.835,10.749C16.825,10.612 16.815,10.481 16.812,10.349L15.937,10.081C15.93,10.217 15.92,10.352 15.91,10.481C15.872,10.821 15.869,11.165 15.9,11.506L15.902,11.506Z" style="fill-rule:nonzero;"/>
            </g>
            <g transform="matrix(104.166667,0,0,104.166667,0,0)">
                <ellipse cx="11.058" cy="6.394" rx="0.778" ry="0.842"/>
            </g>
            <g transform="matrix(104.166667,0,0,104.166667,0,0)">
                <ellipse cx="11.412" cy="6.584" rx="0.183" ry="0.214" style="fill:white;"/>
            </g>
            <g transform="matrix(104.166667,0,0,104.166667,0,0)">
                <ellipse cx="17.574" cy="6.184" rx="0.765" ry="0.842"/>
            </g>
            <g transform="matrix(104.166667,0,0,104.166667,0,0)">
                <ellipse cx="17.922" cy="6.374" rx="0.18" ry="0.214" style="fill:white;"/>
            </g>
            <g transform="matrix(104.166667,0,0,104.166667,0,0)">
                <path d="M14.671,10.247C14.332,11.069 14.86,12.714 15.781,11.501C15.753,10.984 15.767,10.466 15.822,9.952L14.671,10.247Z" style="fill:white;"/>
            </g>
            <g transform="matrix(104.166667,0,0,104.166667,0,0)">
                <path d="M15.166,12.013C15.087,12.013 15.009,11.991 14.94,11.951C14.49,11.495 14.355,10.811 14.599,10.218L14.614,10.182L15.9,9.85L15.9,9.95C15.895,10.12 15.881,10.29 15.868,10.45C15.829,10.792 15.826,11.138 15.858,11.481L15.858,11.513L15.839,11.539C15.574,11.9 15.345,12.013 15.166,12.013ZM14.73,10.313C14.536,10.827 14.647,11.408 15.018,11.813C15.256,11.949 15.518,11.713 15.699,11.478C15.67,11.135 15.674,10.789 15.712,10.447C15.722,10.318 15.732,10.186 15.739,10.055L14.73,10.313Z" style="fill-rule:nonzero;"/>
            </g>
            <g transform="matrix(104.166667,0,0,104.166667,0,0)">
                <path d="M14.787,8.663C14.276,8.711 13.881,9.145 13.881,9.659C13.881,9.798 13.91,9.936 13.966,10.063C14.401,10.851 15.373,9.993 15.979,10.074C16.679,10.088 17.247,10.811 17.806,10.205C18.428,9.531 17.538,8.874 16.842,8.581L14.787,8.663Z" style="fill:rgb(246,210,162);"/>
            </g>
            <g transform="matrix(104.166667,0,0,104.166667,0,0)">
                <path d="M17.308,10.526C17.085,10.508 16.867,10.448 16.667,10.347C16.451,10.24 16.218,10.174 15.978,10.153L15.969,10.153C15.724,10.153 15.481,10.205 15.257,10.305C14.766,10.475 14.209,10.667 13.897,10.105C13.743,9.818 13.749,9.471 13.911,9.188C14.082,8.855 14.409,8.63 14.78,8.588L16.857,8.5L16.873,8.507C17.39,8.725 17.979,9.124 18.08,9.59C18.084,9.623 18.086,9.657 18.086,9.69C18.086,10.127 17.744,10.494 17.308,10.524L17.308,10.526ZM15.985,10C16.243,10.021 16.496,10.091 16.728,10.206C17.121,10.371 17.428,10.501 17.749,10.156C17.894,10.022 17.962,9.823 17.927,9.628C17.84,9.228 17.285,8.859 16.827,8.664L14.791,8.745C14.474,8.785 14.196,8.978 14.049,9.262C13.912,9.498 13.907,9.788 14.034,10.029C14.282,10.478 14.734,10.323 15.204,10.159C15.45,10.05 15.716,9.996 15.985,10Z" style="fill:rgb(35,31,32);fill-rule:nonzero;"/>
            </g>
            <g transform="matrix(104.166667,0,0,104.166667,0,0)">
                <path d="M14.708,8.63C14.661,7.535 16.75,7.4 17,8.315C17.25,9.23 14.814,9.443 14.711,8.631L14.708,8.63Z"/>
            </g>
        </g>
    </g>
</svg>
