<?xml version="1.0" encoding="UTF-8" standalone="no"?>
<!DOCTYPE svg PUBLIC "-//W3C//DTD SVG 1.1//EN" "http://www.w3.org/Graphics/SVG/1.1/DTD/svg11.dtd">
<svg width="100%" height="100%" viewBox="0 0 512 512" version="1.1" xmlns="http://www.w3.org/2000/svg" xmlns:xlink="http://www.w3.org/1999/xlink" xml:space="preserve" xmlns:serif="http://www.serif.com/" style="fill-rule:evenodd;clip-rule:evenodd;stroke-linejoin:round;stroke-miterlimit:2;">
    <g transform="matrix(0.1536,0,0,0.1536,256,256)">
        <g transform="matrix(1,0,0,1,-1666.666667,-1666.666667)">
            <g transform="matrix(104.166667,0,0,104.166667,0,0)">
                <path d="M16.05,8.441C22.638,3.326 19.257,0 19.257,0C19.76,5.287 13.813,6.536 12.219,10.169C11.131,12.649 12.964,14.819 16.047,17.555C15.775,16.949 15.354,16.361 14.929,15.764C13.477,13.731 11.964,11.613 16.05,8.441Z" style="fill:rgb(231,111,0);fill-rule:nonzero;"/>
            </g>
            <g transform="matrix(104.166667,0,0,104.166667,0,0)">
                <path d="M17.102,18.677C17.102,18.677 19.084,17.078 17.514,15.301C12.193,9.272 23.333,6.536 23.333,6.536C16.532,9.812 17.547,11.757 19.257,14.12C21.087,16.654 17.102,18.677 17.102,18.677Z" style="fill:rgb(231,111,0);fill-rule:nonzero;"/>
            </g>
            <g transform="matrix(104.166667,0,0,104.166667,0,0)">
                <path d="M22.937,23.446C29.042,20.326 26.22,17.328 24.249,17.732C23.766,17.831 23.551,17.916 23.551,17.916C23.551,17.916 23.73,17.64 24.073,17.52C27.971,16.173 30.968,21.495 22.814,23.603C22.814,23.603 22.909,23.52 22.937,23.446Z" style="fill:rgb(83,130,161);fill-rule:nonzero;"/>
            </g>
            <g transform="matrix(104.166667,0,0,104.166667,0,0)">
                <path d="M10.233,19.497C6.413,18.995 12.328,17.614 12.328,17.614C12.328,17.614 10.031,17.462 7.206,18.804C3.866,20.393 15.468,21.116 21.474,19.562C22.098,19.143 22.961,18.78 22.961,18.78C22.961,18.78 20.504,19.211 18.056,19.415C15.061,19.661 11.846,19.709 10.233,19.497Z" style="fill:rgb(83,130,161);fill-rule:nonzero;"/>
            </g>
            <g transform="matrix(104.166667,0,0,104.166667,0,0)">
                <path d="M11.686,22.476C9.556,22.259 10.951,21.244 10.951,21.244C5.439,23.043 14.018,25.083 21.72,22.868C20.901,22.584 20.381,22.065 20.381,22.065C16.616,22.778 14.441,22.755 11.686,22.476Z" style="fill:rgb(83,130,161);fill-rule:nonzero;"/>
            </g>
            <g transform="matrix(104.166667,0,0,104.166667,0,0)">
                <path d="M12.614,25.699C10.486,25.459 11.729,24.747 11.729,24.747C6.726,26.122 14.773,28.962 21.143,26.278C20.1,25.879 19.353,25.418 19.353,25.418C16.511,25.947 15.193,25.988 12.614,25.699Z" style="fill:rgb(83,130,161);fill-rule:nonzero;"/>
            </g>
            <g transform="matrix(104.166667,0,0,104.166667,0,0)">
                <path d="M25.939,27.339C25.939,27.339 26.859,28.084 24.925,28.661C21.248,29.757 9.621,30.087 6.391,28.705C5.23,28.208 7.407,27.519 8.092,27.374C8.806,27.222 9.215,27.25 9.215,27.25C7.923,26.356 0.868,29.007 5.631,29.766C18.619,31.837 29.308,28.833 25.939,27.339Z" style="fill:rgb(83,130,161);fill-rule:nonzero;"/>
            </g>
            <g transform="matrix(104.166667,0,0,104.166667,0,0)">
                <path d="M28,28.968C27.787,31.695 18.788,32.268 12.927,31.899C9.104,31.658 8.338,31.056 8.327,31.047C11.986,31.64 18.155,31.748 23.157,30.823C27.59,30.002 28,28.968 28,28.968Z" style="fill:rgb(83,130,161);fill-rule:nonzero;"/>
            </g>
        </g>
    </g>
</svg>
