<?xml version="1.0" encoding="UTF-8" standalone="no"?>
<!DOCTYPE svg PUBLIC "-//W3C//DTD SVG 1.1//EN" "http://www.w3.org/Graphics/SVG/1.1/DTD/svg11.dtd">
<svg width="100%" height="100%" viewBox="0 0 512 512" version="1.1" xmlns="http://www.w3.org/2000/svg" xmlns:xlink="http://www.w3.org/1999/xlink" xml:space="preserve" xmlns:serif="http://www.serif.com/" style="fill-rule:evenodd;clip-rule:evenodd;stroke-linejoin:round;stroke-miterlimit:2;">
    <g transform="matrix(0.1536,0,0,0.1536,256,256)">
        <g transform="matrix(1,0,0,1,-1666.666667,-1666.666667)">
            <g transform="matrix(104.166667,0,0,104.166667,0,0)">
                <path d="M16.62,30L15.869,29.751C15.869,29.751 15.969,25.951 14.594,25.684C13.694,24.636 14.727,-19.057 18.017,25.535C17.393,25.852 16.915,26.398 16.684,27.058C16.56,28.034 16.539,29.02 16.62,30Z" style="fill:url(#_Linear1);fill-rule:nonzero;"/>
            </g>
            <g transform="matrix(104.166667,0,0,104.166667,0,0)">
                <path d="M17.026,26.329C21.101,23.262 23.052,18.1 22.026,13.104C20.556,6.619 17.075,4.487 16.7,3.673C16.376,3.166 16.1,2.631 15.875,2.073L16.152,20.142C16.152,20.142 15.578,25.664 17.026,26.329Z" style="fill:url(#_Linear2);fill-rule:nonzero;"/>
            </g>
            <g transform="matrix(104.166667,0,0,104.166667,0,0)">
                <path d="M15.487,26.569C15.487,26.569 9.366,22.4 9.72,15.025C9.787,10.529 11.802,6.276 15.239,3.377C15.641,3.035 15.865,2.527 15.846,2C16.227,2.82 16.165,14.243 16.205,15.579C16.36,20.776 15.916,25.588 15.487,26.569Z" style="fill:url(#_Linear3);fill-rule:nonzero;"/>
            </g>
        </g>
    </g>
    <defs>
        <linearGradient id="_Linear1" x1="0" y1="0" x2="1" y2="0" gradientUnits="userSpaceOnUse" gradientTransform="matrix(8.636286,2.915508,-2.915508,8.636286,11.571644,16.252312)"><stop offset="0" style="stop-color:rgb(153,152,117);stop-opacity:1"/><stop offset="0.23" style="stop-color:rgb(153,152,117);stop-opacity:1"/><stop offset="0.56" style="stop-color:rgb(155,153,119);stop-opacity:1"/><stop offset="0.68" style="stop-color:rgb(160,159,126);stop-opacity:1"/><stop offset="0.77" style="stop-color:rgb(169,168,137);stop-opacity:1"/><stop offset="0.84" style="stop-color:rgb(183,182,154);stop-opacity:1"/><stop offset="0.9" style="stop-color:rgb(201,199,176);stop-opacity:1"/><stop offset="0.95" style="stop-color:rgb(222,221,203);stop-opacity:1"/><stop offset="0.99" style="stop-color:rgb(248,246,235);stop-opacity:1"/><stop offset="1" style="stop-color:rgb(251,249,239);stop-opacity:1"/></linearGradient>
        <linearGradient id="_Linear2" x1="0" y1="0" x2="1" y2="0" gradientUnits="userSpaceOnUse" gradientTransform="matrix(6.047367,23.47161,-23.47161,6.047367,14.736949,1.943886)"><stop offset="0" style="stop-color:rgb(72,165,71);stop-opacity:1"/><stop offset="1" style="stop-color:rgb(63,145,67);stop-opacity:1"/></linearGradient>
        <linearGradient id="_Linear3" x1="0" y1="0" x2="1" y2="0" gradientUnits="userSpaceOnUse" gradientTransform="matrix(10.583984,-2.4043,2.4043,10.583984,9.193472,15.755023)"><stop offset="0" style="stop-color:rgb(65,162,71);stop-opacity:1"/><stop offset="0.35" style="stop-color:rgb(75,167,75);stop-opacity:1"/><stop offset="0.96" style="stop-color:rgb(103,181,84);stop-opacity:1"/><stop offset="1" style="stop-color:rgb(105,182,85);stop-opacity:1"/></linearGradient>
    </defs>
</svg>
