<?xml version="1.0" encoding="UTF-8" standalone="no"?>
<!DOCTYPE svg PUBLIC "-//W3C//DTD SVG 1.1//EN" "http://www.w3.org/Graphics/SVG/1.1/DTD/svg11.dtd">
<svg width="100%" height="100%" viewBox="0 0 512 512" version="1.1" xmlns="http://www.w3.org/2000/svg" xmlns:xlink="http://www.w3.org/1999/xlink" xml:space="preserve" xmlns:serif="http://www.serif.com/" style="fill-rule:evenodd;clip-rule:evenodd;stroke-linejoin:round;stroke-miterlimit:2;">
    <g transform="matrix(0.1536,0,0,0.1536,256,256)">
        <g transform="matrix(1,0,0,1,-1666.666667,-1666.666667)">
            <clipPath id="_clip1">
                <rect x="0" y="0" width="3333.333" height="3333.333"/>
            </clipPath>
            <g clip-path="url(#_clip1)">
                <g transform="matrix(138.888889,0,0,138.888889,0,0)">
                    <path d="M5.462,4.04C5.189,4.035 4.996,4.07 4.792,4.114L4.792,4.152L4.829,4.152C4.959,4.419 5.189,4.591 5.35,4.822C5.474,5.083 5.598,5.343 5.722,5.603C5.735,5.591 5.747,5.579 5.76,5.566C5.99,5.404 6.096,5.144 6.095,4.747C6.002,4.65 5.988,4.528 5.908,4.412C5.802,4.258 5.596,4.17 5.462,4.04ZM23.479,23.137C23.654,23.266 23.772,23.466 24,23.547L24,23.509C23.88,23.357 23.85,23.147 23.74,22.988C23.579,22.827 23.416,22.666 23.256,22.504C22.782,21.876 22.182,21.325 21.543,20.866C21.035,20.501 19.894,20.007 19.682,19.415C19.67,19.402 19.657,19.39 19.644,19.377C20.005,19.337 20.428,19.206 20.761,19.117C21.321,18.967 21.821,19.005 22.399,18.856C22.66,18.781 22.92,18.707 23.181,18.633L23.181,18.483C22.889,18.184 22.681,17.787 22.362,17.516C21.528,16.806 20.619,16.097 19.682,15.506C19.163,15.177 18.52,14.965 17.969,14.687C17.784,14.593 17.459,14.544 17.337,14.389C17.048,14.02 16.89,13.552 16.667,13.123C16.2,12.223 15.74,11.24 15.326,10.294C15.044,9.648 14.86,9.012 14.508,8.432C12.817,5.653 10.998,3.976 8.179,2.327C7.579,1.976 6.857,1.838 6.095,1.657C5.685,1.633 5.275,1.607 4.866,1.583C4.616,1.478 4.357,1.173 4.122,1.024C3.188,0.435 0.793,-0.849 0.102,0.838C-0.335,1.903 0.754,2.942 1.144,3.481C1.417,3.86 1.767,4.284 1.963,4.71C2.091,4.989 2.113,5.27 2.224,5.566C2.494,6.295 2.729,7.088 3.079,7.762C3.257,8.103 3.452,8.463 3.675,8.767C3.813,8.954 4.047,9.037 4.084,9.326C3.855,9.647 3.842,10.147 3.713,10.554C3.131,12.389 3.35,14.669 4.197,16.027C4.456,16.443 5.068,17.337 5.908,16.994C6.644,16.695 6.48,15.766 6.69,14.947C6.737,14.761 6.709,14.624 6.802,14.5L6.802,14.537C7.025,14.984 7.249,15.431 7.472,15.877C7.968,16.676 8.848,17.511 9.594,18.074C9.98,18.366 10.285,18.871 10.785,19.042L10.785,19.004L10.748,19.004C10.65,18.854 10.499,18.791 10.376,18.669C10.084,18.384 9.761,18.029 9.519,17.701C8.841,16.781 8.242,15.773 7.696,14.724C7.435,14.222 7.208,13.67 6.988,13.16C6.903,12.963 6.904,12.666 6.727,12.564C6.487,12.938 6.132,13.24 5.946,13.681C5.648,14.386 5.609,15.246 5.499,16.138C5.434,16.161 5.463,16.145 5.424,16.175C4.906,16.05 4.724,15.516 4.531,15.058C4.044,13.901 3.953,12.036 4.382,10.703C4.493,10.358 4.995,9.272 4.791,8.953C4.694,8.635 4.375,8.452 4.196,8.209C3.974,7.909 3.753,7.513 3.6,7.166C3.202,6.264 3.015,5.25 2.595,4.337C2.395,3.901 2.055,3.46 1.776,3.072C1.468,2.642 1.122,2.326 0.883,1.806C0.798,1.621 0.682,1.326 0.808,1.136C0.848,1.008 0.905,0.954 1.032,0.913C1.248,0.746 1.849,0.968 2.074,1.061C2.671,1.309 3.169,1.545 3.675,1.88C3.917,2.041 4.163,2.353 4.456,2.439L4.791,2.439C5.316,2.559 5.903,2.476 6.392,2.625C7.257,2.888 8.033,3.297 8.737,3.742C10.883,5.097 12.637,7.025 13.837,9.326C14.03,9.696 14.114,10.05 14.284,10.443C14.627,11.235 15.059,12.05 15.4,12.825C15.741,13.598 16.073,14.378 16.554,15.021C16.807,15.359 17.785,15.541 18.23,15.729C18.541,15.86 19.051,15.998 19.346,16.175C19.91,16.515 20.456,16.92 20.984,17.292C21.248,17.479 22.061,17.887 22.101,18.222C20.792,18.188 19.792,18.309 18.937,18.67C18.694,18.772 18.306,18.775 18.266,19.079C18.4,19.219 18.421,19.428 18.527,19.6C18.731,19.93 19.076,20.373 19.383,20.605C19.72,20.859 20.066,21.13 20.426,21.35C21.066,21.741 21.782,21.964 22.398,22.355C22.763,22.586 23.124,22.876 23.479,23.137Z" style="fill:rgb(0,117,143);"/>
                </g>
            </g>
        </g>
    </g>
</svg>
