<?xml version="1.0" encoding="UTF-8" standalone="no"?>
<!DOCTYPE svg PUBLIC "-//W3C//DTD SVG 1.1//EN" "http://www.w3.org/Graphics/SVG/1.1/DTD/svg11.dtd">
<svg width="100%" height="100%" viewBox="0 0 512 512" version="1.1" xmlns="http://www.w3.org/2000/svg" xmlns:xlink="http://www.w3.org/1999/xlink" xml:space="preserve" xmlns:serif="http://www.serif.com/" style="fill-rule:evenodd;clip-rule:evenodd;stroke-linejoin:round;stroke-miterlimit:2;">
    <g transform="matrix(0.1536,0,0,0.1536,256,256)">
        <g transform="matrix(1,0,0,1,-1666.666667,-1666.666667)">
            <g transform="matrix(104.166667,0,0,104.166667,0,0)">
                <path d="M13.016,2C10.819,2 9.038,3.725 9.038,5.852L9.038,8.519L15.924,8.519L15.924,9.259L5.978,9.259C3.781,9.259 2,10.984 2,13.111L2,18.889C2,21.016 3.781,22.741 5.978,22.741L8.273,22.741L8.273,19.482C8.273,17.354 10.054,15.63 12.251,15.63L19.596,15.63C21.455,15.63 22.962,14.17 22.962,12.37L22.962,5.852C22.962,3.725 21.181,2 18.984,2L13.016,2ZM12.098,6.741C12.859,6.741 13.475,6.144 13.475,5.407C13.475,4.671 12.859,4.074 12.098,4.074C11.338,4.074 10.721,4.671 10.721,5.407C10.721,6.144 11.338,6.741 12.098,6.741Z" style="fill:url(#_Linear1);"/>
            </g>
            <g transform="matrix(104.166667,0,0,104.166667,0,0)">
                <path d="M18.983,30C21.18,30 22.962,28.276 22.962,26.148L22.962,23.482L16.076,23.482L16.076,22.741L26.022,22.741C28.219,22.741 30,21.016 30,18.889L30,13.111C30,10.984 28.219,9.259 26.022,9.259L23.727,9.259L23.727,12.518C23.727,14.646 21.945,16.37 19.748,16.37L12.404,16.37C10.545,16.37 9.038,17.83 9.038,19.63L9.038,26.148C9.038,28.276 10.819,30 13.016,30L18.983,30ZM19.901,25.259C19.141,25.259 18.524,25.856 18.524,26.593C18.524,27.329 19.141,27.926 19.901,27.926C20.662,27.926 21.279,27.329 21.279,26.593C21.279,25.856 20.662,25.259 19.901,25.259Z" style="fill:url(#_Linear2);"/>
            </g>
        </g>
    </g>
    <defs>
        <linearGradient id="_Linear1" x1="0" y1="0" x2="1" y2="0" gradientUnits="userSpaceOnUse" gradientTransform="matrix(0,20.7407,-20.7407,0,12.4809,2)"><stop offset="0" style="stop-color:rgb(50,126,189);stop-opacity:1"/><stop offset="1" style="stop-color:rgb(21,101,167);stop-opacity:1"/></linearGradient>
        <linearGradient id="_Linear2" x1="0" y1="0" x2="1" y2="0" gradientUnits="userSpaceOnUse" gradientTransform="matrix(0,20.74072,-20.74072,0,19.519,9.25928)"><stop offset="0" style="stop-color:rgb(255,218,75);stop-opacity:1"/><stop offset="1" style="stop-color:rgb(249,198,0);stop-opacity:1"/></linearGradient>
    </defs>
</svg>
