<?xml version="1.0" encoding="UTF-8" standalone="no"?>
<!DOCTYPE svg PUBLIC "-//W3C//DTD SVG 1.1//EN" "http://www.w3.org/Graphics/SVG/1.1/DTD/svg11.dtd">
<svg width="100%" height="100%" viewBox="0 0 512 512" version="1.1" xmlns="http://www.w3.org/2000/svg" xmlns:xlink="http://www.w3.org/1999/xlink" xml:space="preserve" xmlns:serif="http://www.serif.com/" style="fill-rule:evenodd;clip-rule:evenodd;stroke-linejoin:round;stroke-miterlimit:2;">
    <g transform="matrix(0.1536,0,0,0.1536,256,256)">
        <g transform="matrix(1,0,0,1,-1666.666667,-1666.666667)">
            <g transform="matrix(104.166667,0,0,104.166667,0,0)">
                <path d="M23.192,3.242L5.623,3.242C4.45,3.245 3.485,4.21 3.482,5.383L3.482,24.759C3.485,25.932 4.45,26.897 5.623,26.9L17.195,26.9C17.063,21.142 19.03,9.968 23.192,3.242Z" style="fill:rgb(15,128,204);fill-rule:nonzero;"/>
            </g>
            <g transform="matrix(104.166667,0,0,104.166667,0,0)">
                <path d="M22.554,3.867L5.623,3.867C4.792,3.868 4.108,4.552 4.107,5.383L4.107,23.345C8.451,21.707 13.036,20.8 17.676,20.661C18.903,14.955 20.533,9.343 22.554,3.867Z" style="fill:url(#_Linear1);fill-rule:nonzero;"/>
            </g>
            <g transform="matrix(104.166667,0,0,104.166667,0,0)">
                <path d="M27.29,2.608C26.09,1.535 24.63,1.966 23.19,3.242C22.977,3.432 22.764,3.642 22.552,3.867C19.843,7.071 17.97,10.896 17.1,15C17.369,15.586 17.581,16.196 17.734,16.822C17.77,16.962 17.803,17.094 17.834,17.206C17.896,17.471 17.934,17.643 17.934,17.643C17.934,17.643 17.912,17.56 17.821,17.297L17.762,17.127C17.752,17.1 17.739,17.068 17.724,17.033C17.564,16.66 17.124,15.873 16.924,15.533C16.757,16.026 16.609,16.487 16.486,16.904C16.901,17.797 17.206,18.737 17.394,19.704C17.582,20.671 17.364,19.589 17.223,19.189C16.952,18.605 16.652,18.035 16.323,17.481C16.11,18.03 16.02,18.618 16.059,19.205C16.279,19.644 16.445,20.109 16.552,20.588C16.886,21.871 17.118,23.434 17.118,23.434C17.118,23.434 17.126,23.534 17.138,23.697C17.094,24.766 17.116,25.836 17.203,26.902C17.253,27.957 17.449,29.001 17.787,30.002L17.967,29.902C17.548,28.397 17.386,26.833 17.489,25.274C17.677,21.97 18.33,18.708 19.427,15.586C21.437,10.278 24.227,6.018 26.777,3.986C24.451,6.086 21.303,12.886 20.36,15.404C19.367,17.997 18.613,20.674 18.106,23.404C18.709,21.881 19.89,20.657 21.39,20C22.89,19.343 22.623,18.479 24.064,16.307C23.133,16.501 22.213,16.746 21.309,17.04C20.609,17.334 20.42,17.434 20.42,17.434C21.756,16.629 23.168,15.957 24.635,15.427C27.311,11.212 30.227,5.227 27.291,2.603" style="fill:rgb(0,59,87);fill-rule:nonzero;"/>
            </g>
        </g>
    </g>
    <defs>
        <linearGradient id="_Linear1" x1="0" y1="0" x2="1" y2="0" gradientUnits="userSpaceOnUse" gradientTransform="matrix(0,17.998562,-17.998562,0,13.309068,4.306452)"><stop offset="0" style="stop-color:rgb(151,217,246);stop-opacity:1"/><stop offset="0.92" style="stop-color:rgb(15,128,204);stop-opacity:1"/><stop offset="1" style="stop-color:rgb(15,128,204);stop-opacity:1"/></linearGradient>
    </defs>
</svg>
